<?xml version="1.0" encoding="iso-8859-1"?>
<!-- Uploaded to: SVG Repo, www.svgrepo.com, Generator: SVG Repo Mixer Tools -->
<svg height="800px" width="800px" version="1.1" id="Layer_1" xmlns="http://www.w3.org/2000/svg" xmlns:xlink="http://www.w3.org/1999/xlink" 
	 viewBox="0 0 512 512" xml:space="preserve">
<circle style="fill:#FFC61B;" cx="256" cy="256" r="256"/>
<path style="fill:#EAA22F;" d="M195.303,431.349l81.41,79.815C402.11,501.122,502.017,400.727,511.29,275.115L374.136,138.049
	l-39.171-7.849l-24.069-24.069l-18.546,1.614l-6.747,20.975c0,0-77.586-1.15-129.877,55.453s-38.453,120.491-5.172,176.412
	S195.303,431.349,195.303,431.349z"/>
<path style="fill:#59595B;" d="M299.246,99.568c-7.758,0-13.953,6.459-13.631,14.21l13.631,341.333l13.631-341.333
	C313.199,106.027,307.003,99.568,299.246,99.568z M306.142,149.118c0,3.808-3.088,6.896-6.896,6.896s-6.896-3.088-6.896-6.896
	v-27.582c0-3.808,3.087-6.896,6.896-6.896s6.896,3.088,6.896,6.896V149.118z"/>
<path style="fill:#272525;" d="M312.877,113.778c0.322-7.751-5.873-14.21-13.631-14.21c-0.245,0-0.483,0.024-0.722,0.038v15.107
	c0.241-0.026,0.476-0.072,0.722-0.072c3.808,0,6.896,3.088,6.896,6.896v27.582c0,3.808-3.088,6.896-6.896,6.896
	c-0.248,0-0.483-0.048-0.722-0.072v281.064l0.722,18.106L312.877,113.778z"/>
<path style="fill:#FF314F;" d="M199.116,432.7c-1.827,0-3.631-0.826-4.818-2.395l-5.954-7.858
	C129.029,344.269,61.802,255.66,166.75,166.076c47.371-40.438,100.716-46.278,137.119-44.063
	c39.279,2.395,67.12,14.162,68.286,14.662c3.062,1.314,4.482,4.86,3.169,7.923c-1.312,3.06-4.858,4.486-7.918,3.17l0,0
	c-0.271-0.114-27.401-11.533-64.686-13.734c-49.576-2.905-92.667,10.945-128.134,41.22C78.3,257.441,139.131,337.618,197.96,415.153
	l5.966,7.871c2.01,2.658,1.484,6.442-1.174,8.452C201.661,432.304,200.383,432.7,199.116,432.7z"/>
<path style="fill:#A30F44;" d="M372.155,136.676c-1.167-0.5-29.006-12.267-68.286-14.662c-1.739-0.107-3.531-0.186-5.346-0.252
	v12.071c1.393,0.055,2.791,0.119,4.196,0.202c37.286,2.2,64.415,13.619,64.686,13.734c3.058,1.315,6.606-0.109,7.918-3.17
	C376.635,141.538,375.217,137.99,372.155,136.676z"/>
<path style="fill:#59595B;" d="M285.741,116.891l1.067,26.741c1.75-0.734,3.522-1.4,5.306-1.977
	c0.078-0.024,0.159-0.043,0.236-0.067v-20.052c0-1.293,0.371-2.491,0.99-3.525C290.733,117.832,288.196,117.455,285.741,116.891z"/>
</svg>